<?xml version="1.0" encoding="UTF-8"?>
<svg version="1.1" xmlns="http://www.w3.org/2000/svg" width="1024" height="1024">
<path d="M0 0 C337.92 0 675.84 0 1024 0 C1024 337.92 1024 675.84 1024 1024 C686.08 1024 348.16 1024 0 1024 C0 686.08 0 348.16 0 0 Z " fill="#182027" transform="translate(0,0)"/>
<path d="M0 0 C0.79083984 0.16628906 1.58167969 0.33257812 2.39648438 0.50390625 C45.91935959 10.06548176 85.29924887 37.13910307 110.09765625 74.12890625 C120.25816127 90.08422723 127.89841327 107.29477913 133.1875 125.4375 C133.42549316 126.24662842 133.66348633 127.05575684 133.90869141 127.8894043 C138.20833254 143.20329783 139.81670786 158.64535658 141.15405273 174.43115234 C144.33723253 211.48662998 159.08157649 239.81123948 180.52124023 269.8359375 C184.45475334 275.5923615 186.02550346 281.04289129 185 288 C183.47937516 293.4760597 180.9588704 298.18073677 176.453125 301.7265625 C171.91008441 304.08489249 166.91155216 304.9985626 161.9375 306.04296875 C157.98857561 306.91216135 152.91749777 308.08250223 150 311 C149.68182717 314.97716039 149.75835962 317.49658255 151.5 321.125 C154.25085439 326.95575836 154.10982165 334.39165678 152.23828125 340.4765625 C150.73646633 343.64640111 149.21298855 345.7927679 146.6875 348.25 C145.8521875 349.11625 145.8521875 349.11625 145 350 C145.2844925 351.34460139 145.62942911 352.67653254 146 354 C147.2014957 365.86047898 143.34076615 372.3049504 136.234375 381.37109375 C133.70109747 384.71405808 133.93084704 387.00854885 134.04296875 391.15234375 C134.06423828 392.40466797 134.08550781 393.65699219 134.10742188 394.94726562 C134.16010735 397.57254424 134.22487891 400.19761287 134.30273438 402.82226562 C134.4641629 414.5467597 132.19725652 424.30426167 124 433 C115.68330075 441.36911542 104.81347066 445.14878626 93.18847656 445.38696289 C87.37417196 445.35689736 81.60418925 445.00362515 75.8125 444.5 C54.78161234 442.71410713 34.15196171 442.53763306 16.9375 456.48046875 C-4.28443199 474.90768852 -14.84375711 499.7741262 -23 526 C-55.22423238 516.16432081 -83.91499085 491.72276088 -109 470 C-110.08283661 469.0877044 -111.16751619 468.17759239 -112.25390625 467.26953125 C-123.42683562 457.93042143 -133.99634588 448.08926874 -144.3125 437.8125 C-145.16078369 436.96888916 -146.00906738 436.12527832 -146.88305664 435.25610352 C-151.79545382 430.33113401 -156.48441749 425.2896003 -161 420 C-162.30324219 418.51886719 -162.30324219 418.51886719 -163.6328125 417.0078125 C-169.53824717 410.17676111 -174.91277297 403.09436171 -180.15380859 395.74267578 C-187.23143255 385.82979562 -194.62421556 376.26864503 -202.8828125 367.3046875 C-204.98942095 365.01151594 -207.02503281 362.66708271 -209.0625 360.3125 C-212.17839711 356.79475108 -215.48225544 353.71189306 -219.06640625 350.6796875 C-220.9694893 349.02650425 -222.73604192 347.29995722 -224.5 345.5 C-226.79238529 343.16195923 -229.14650443 340.97289458 -231.63671875 338.84765625 C-244.29721601 327.82828067 -256.3291344 315.75411996 -266 302 C-266.3933252 301.44570313 -266.78665039 300.89140625 -267.19189453 300.3203125 C-285.16026153 274.65755223 -291.66144316 246.15928793 -291.4375 215.1875 C-291.43346161 214.24747131 -291.42942322 213.30744263 -291.42526245 212.33892822 C-291.21530054 177.28084427 -283.18895251 143.68869252 -274.75341797 109.81762695 C-271.44827513 96.04619844 -269.36026424 81.95746111 -267 68 C-262.30466505 68.809211 -258.60943324 70.59475284 -254.5 72.9375 C-253.79512451 73.33791504 -253.09024902 73.73833008 -252.36401367 74.15087891 C-245.42018493 78.19015585 -239.17900516 82.88686845 -233 88 C-232.20215088 88.65355469 -232.20215088 88.65355469 -231.38818359 89.3203125 C-222.9722569 96.23294398 -214.90037465 103.50579381 -207 111 C-206.175 111.78246094 -205.35 112.56492187 -204.5 113.37109375 C-199.35563514 118.38149078 -194.73490911 123.70123939 -190.30126953 129.34814453 C-189.38382126 130.51277024 -188.45967218 131.67213261 -187.53076172 132.82763672 C-164.39432276 161.63455932 -148.59428066 194.37097061 -143 231 C-142.896875 231.66733154 -142.79375 232.33466309 -142.6875 233.0222168 C-140.89003692 245.81790712 -141.44527855 259.11933352 -143.25 271.875 C-143.41387207 273.04712036 -143.41387207 273.04712036 -143.58105469 274.24291992 C-145.99115876 289.62235701 -150.91904902 304.30914875 -155.86645508 319.01464844 C-160.50101613 332.83200848 -164.0866783 346.27143875 -165.1875 360.875 C-165.26935547 361.86113281 -165.35121094 362.84726562 -165.43554688 363.86328125 C-165.6318207 366.24165816 -165.81995851 368.62034931 -166 371 C-168 371 -168 371 -169.55859375 369.48046875 C-198.21920185 334.50380148 -205.55258131 291.10240333 -206.55609131 247.30175781 C-207.65297119 200.05445411 -215.00277193 148.79627465 -246 111 C-247.31354422 109.97414458 -248.64378958 108.96874717 -250 108 C-249.72325439 108.98057373 -249.44650879 109.96114746 -249.16137695 110.97143555 C-236.94432952 154.32175356 -227.24043087 196.70175535 -226.33837891 241.93994141 C-225.2816192 294.02830383 -215.54296568 338.92268788 -180.5859375 379.01171875 C-178.12884113 381.85111259 -175.77789214 384.75174495 -173.4375 387.6875 C-169.56211532 392.47556585 -165.33160373 396.76065094 -160.87109375 401.00390625 C-159 403 -159 403 -159 405 C-158.34 405 -157.68 405 -157 405 C-155.58984375 406.43359375 -155.58984375 406.43359375 -153.9375 408.4375 C-148.10238308 415.28952526 -141.72468448 421.4653892 -134.8984375 427.3203125 C-133.02029247 428.98204576 -131.25694484 430.71125525 -129.5 432.5 C-126.51127663 435.53594925 -123.38293521 438.34508659 -120.15625 441.125 C-117.80037042 443.17359094 -115.4949254 445.27203002 -113.1875 447.375 C-108.92254692 451.21928245 -104.5513915 454.89526905 -100.0859375 458.50390625 C-97.85060183 460.31198156 -95.62811795 462.13112763 -93.4140625 463.96484375 C-76.51587058 477.91497753 -58.74304647 490.36308772 -40.43896484 502.39550781 C-37.61770959 504.25149275 -34.80688998 506.12238599 -32 508 C-31.75507812 507.37738281 -31.51015625 506.75476563 -31.2578125 506.11328125 C-19.30757441 476.56734777 -4.40863509 447.4043459 26.26782227 434.15551758 C40.95851836 428.1457728 57.25406744 427.96423416 72.875 429.5 C86.17594505 430.74926003 99.16084701 431.50296473 111.3125 425.3125 C115.69199812 421.54409464 118.99089619 416.76782495 120 411 C120.09248018 409.02255614 120.12999268 407.04209892 120.125 405.0625 C120.12886719 403.53302734 120.12886719 403.53302734 120.1328125 401.97265625 C120.00858041 399.19204982 119.58586998 396.71350308 119 394 C117.71157944 384.58963716 121.13285492 377.21842337 126.69921875 369.70703125 C127.23160156 369.04058594 127.76398438 368.37414062 128.3125 367.6875 C131.07899817 364.11901167 132.41727631 361.67349467 132 357 C129.95880173 354.0171149 127.60301389 351.49915298 125 349 C127.15790935 346.71396479 129.41363238 344.96562774 132 343.1875 C135.58692799 340.49895545 137.6758331 338.41388966 139 334 C138.8563303 329.47440432 138.36573436 326.77535685 136.4375 322.6875 C134.18004356 316.89663347 133.68417003 311.34375615 135.99609375 305.46875 C139.99876778 298.66533806 145.46725501 295.52140198 152.96923828 293.45849609 C155.82171759 292.73408806 158.67378543 292.03540649 161.55419922 291.43041992 C164.26409485 290.8379397 166.61205946 290.24428731 168.97265625 288.7578125 C170.59254009 285.98614814 170.41919209 284.16680567 170 281 C168.79975742 278.52123816 167.60274461 276.35985966 166.125 274.0625 C165.72007324 273.40991211 165.31514648 272.75732422 164.89794922 272.08496094 C162.07398569 267.57225205 159.10715728 263.1589499 156.125 258.75 C147.21972262 245.55304376 139.19110901 232.10140802 134 217 C133.62359375 215.96875 133.2471875 214.9375 132.859375 213.875 C128.24959784 199.83926058 127.69202714 184.63019503 126.359375 170.0078125 C122.44801444 128.33409642 110.14732477 92.41728733 82 61 C81.30648438 60.22140625 80.61296875 59.4428125 79.8984375 58.640625 C69.04926348 47.16312044 55.72421896 38.17458788 41.77246094 30.92724609 C40.19059382 30.09970735 38.62884051 29.2339789 37.0703125 28.36328125 C15.42412033 16.68169596 -10.31214146 11.77137236 -34.6875 11.75 C-35.72236542 11.74898788 -35.72236542 11.74898788 -36.77813721 11.74795532 C-54.5946561 11.77556543 -71.14236415 14.16944601 -88 20 C-88.63744141 20.22026855 -89.27488281 20.44053711 -89.93164062 20.66748047 C-109.50215428 27.60584229 -125.94058367 38.81091771 -141 53 C-141.90298828 53.82371094 -141.90298828 53.82371094 -142.82421875 54.6640625 C-160.63197607 71.51709157 -169.77901226 94.06478252 -177 117 C-178.33895632 115.33784732 -179.67130142 113.67036393 -181 112 C-181.86625 111.00419922 -181.86625 111.00419922 -182.75 109.98828125 C-185.26825501 105.98268187 -183.85824111 101.42980351 -183 97 C-177.73350981 76.58952514 -166.38626364 60.19608642 -152 45 C-151.18015625 44.11570312 -150.3603125 43.23140625 -149.515625 42.3203125 C-111.57638218 2.69737547 -52.80874 -11.11302399 0 0 Z " fill="#7B9F9B" transform="translate(558,250)"/>
<path d="M0 0 C1.31822754 0.00829834 2.63645508 0.01659668 3.99462891 0.02514648 C29.11019602 0.45955953 51.96845002 9.93190087 69.76367188 27.87792969 C81.8399196 40.5492619 90.11830862 55.37893263 94.25 72.4375 C94.42515137 73.15115723 94.60030273 73.86481445 94.78076172 74.60009766 C100.14462072 98.42405302 95.81131524 121.65806343 83.15039062 142.22363281 C76.77791867 152.16581693 69.41271104 161.56974482 60.9140625 169.77734375 C59.17712187 171.51020705 57.59154672 173.32063833 56 175.1875 C53.16840351 178.49313608 50.14130135 181.48809884 47 184.5 C25.21794659 205.92595376 11.00261151 237.66637122 10.17211914 268.3112793 C10.15216666 271.37484707 10.16237335 274.43648152 10.1875 277.5 C10.19201172 278.55638672 10.19652344 279.61277344 10.20117188 280.70117188 C10.21284082 283.28000908 10.22921115 285.85872294 10.25 288.4375 C10.5903125 287.68726563 10.930625 286.93703125 11.28125 286.1640625 C11.7659375 285.14054687 12.250625 284.11703125 12.75 283.0625 C13.44609375 281.56589844 13.44609375 281.56589844 14.15625 280.0390625 C19.92340078 269.38962763 29.42882347 260.99162114 37.9375 252.5546875 C39.24930013 251.24662586 40.56065322 249.93811578 41.87158203 248.62918091 C45.29311734 245.21521631 48.72061899 241.80730548 52.1494751 238.4006958 C55.65932208 234.91144999 59.16338709 231.41640784 62.66796875 227.921875 C69.52305574 221.08812188 76.38447111 214.26076149 83.25 207.4375 C82.92765381 206.51694824 82.60530762 205.59639648 82.27319336 204.64794922 C80.31005531 198.48825814 79.96763454 191.16530658 82.08984375 184.99609375 C85.55676883 179.03111491 91.013481 174.02132845 97.1875 171 C105.41974486 169.48795503 112.35661933 170.13648086 119.38671875 174.87890625 C125.07796748 179.41296947 128.49541836 184.42430245 129.58984375 191.6953125 C129.91850878 199.24146151 127.84884755 205.81337812 123.1875 211.75 C118.1642402 217.04821718 111.96470411 219.58389673 104.6875 219.8125 C102.27140406 219.72896774 100.516384 219.55939473 98.30603027 218.54795837 C95.68233681 217.41420124 94.1133161 217.12336134 91.25 217.4375 C86.28407313 220.72684883 82.33379299 224.97768437 78.21875 229.25390625 C76.97734714 230.50568901 75.73377816 231.75532696 74.48815918 233.00291443 C71.87900537 235.62744177 69.28894923 238.26899755 66.71240234 240.92553711 C63.43960092 244.29938644 60.13582163 247.64050553 56.81850433 250.97053623 C54.24619201 253.55572517 51.68516808 256.15185555 49.12782288 258.75184441 C47.91467899 259.98501865 46.69967588 261.21636714 45.48265076 262.44571114 C23.07472641 285.15783608 17.79722841 304.87910095 17.81420898 336.28588867 C17.77405355 370.73657751 6.77534454 401.89232142 -16.1796875 428.01953125 C-19.73780018 431.23245389 -22.84755077 431.88500436 -27.68945312 431.74951172 C-31.13127987 431.22834411 -33.72751572 429.47412493 -36.5 427.5 C-37.3967041 426.89091797 -37.3967041 426.89091797 -38.31152344 426.26953125 C-40.14109257 425.01430542 -41.94747998 423.73119608 -43.75 422.4375 C-45.34328125 421.30634766 -45.34328125 421.30634766 -46.96875 420.15234375 C-52.75957629 415.92116011 -58.18554924 411.41597917 -63.44921875 406.546875 C-65.5213264 404.64714982 -67.64841131 402.85523619 -69.8125 401.0625 C-74.77401145 396.72991254 -78.72953303 391.63089758 -82.75 386.4375 C-83.43191406 385.58285156 -84.11382812 384.72820312 -84.81640625 383.84765625 C-101.46049309 362.18754324 -108.68513725 335.01629159 -105.44970703 307.92285156 C-100.4405736 275.95373247 -82.49103705 250.41478129 -60.30859375 227.6328125 C-56.14443033 221.76749961 -56.39576155 214.83626975 -56.4375 207.9375 C-56.44313965 206.96280762 -56.4487793 205.98811523 -56.45458984 204.98388672 C-56.77028152 186.03300917 -63.40863931 170.05712517 -71.69308472 153.32211304 C-86.04850229 124.29114038 -96.20059512 93.17466753 -85.81933594 61.01782227 C-78.1057187 38.54133695 -62.37054406 19.05940666 -40.86816406 8.51464844 C-27.6217988 2.44881158 -14.56963798 -0.11877931 0 0 Z M-28.75 17.4375 C-29.38115723 17.70062988 -30.01231445 17.96375977 -30.66259766 18.23486328 C-41.0800711 22.63125105 -48.9426301 28.30995405 -56.75 36.4375 C-57.34039062 37.02015625 -57.93078125 37.6028125 -58.5390625 38.203125 C-71.78766335 52.23105531 -78.34387953 72.96153977 -78.00390625 91.88671875 C-76.43504778 113.8266011 -68.03082336 133.14597608 -58.15576172 152.5 C-48.32893997 171.77418302 -43.71150634 188.85421302 -42.75 210.4375 C-37.5476079 206.08200894 -32.56156693 201.52144295 -27.59448242 196.90234375 C-24.57253968 194.09796694 -21.52011685 191.35441195 -18.375 188.6875 C-12.14896622 183.21692638 -7.53828267 177.523371 -3.5 170.25 C-3.17064453 169.67507813 -2.84128906 169.10015625 -2.50195312 168.5078125 C2.76004494 158.58641738 3.6994366 147.61128283 3.54296875 136.57421875 C3.53872391 135.41622269 3.53447906 134.25822662 3.53010559 133.06513977 C3.51350389 129.41817547 3.4758873 125.77179324 3.4375 122.125 C3.42242922 119.63086744 3.40874505 117.13672609 3.39648438 114.64257812 C3.36366135 108.57402493 3.31365102 102.50580407 3.25 96.4375 C2.31414062 95.98761719 1.37828125 95.53773438 0.4140625 95.07421875 C-4.92145134 92.31424307 -8.51047569 88.35847883 -11.015625 82.9375 C-13.08543614 75.89133443 -13.02551693 67.98471563 -9.6875 61.375 C-5.84715559 55.53854437 -0.57275631 51.96913917 6.25 50.4375 C13.98864424 49.8031849 20.81560031 51.25719255 27.0625 56.0625 C32.08803454 60.80753959 34.41594814 66.51077301 34.75 73.375 C34.40700361 80.48940897 32.28434352 86.99781166 26.9375 91.875 C23.71777006 94.48664535 20.04764207 95.83564054 16.25 97.4375 C16.24120064 98.30834984 16.24120064 98.30834984 16.23222351 99.1967926 C16.16760885 105.31435612 16.08302724 111.43142611 15.98754883 117.54858398 C15.95457334 119.82260576 15.92645909 122.096704 15.90356445 124.37084961 C15.62249763 151.56256952 11.80192856 174.1309356 -7.75 194.4375 C-8.36101562 195.076875 -8.97203125 195.71625 -9.6015625 196.375 C-12.37844902 199.21528576 -15.24546764 201.90253331 -18.25 204.5 C-28.76976358 213.61712844 -38.74591847 223.32351429 -48.625 233.125 C-49.49213623 233.97916504 -50.35927246 234.83333008 -51.25268555 235.71337891 C-75.62116008 260.04688481 -92.6478881 288.30381084 -93.0625 323.4375 C-92.96458885 345.89974979 -84.29199632 365.55262649 -69.75 382.4375 C-68.99203125 383.31792969 -68.2340625 384.19835937 -67.453125 385.10546875 C-63.47686119 389.62213082 -59.52226527 393.76652672 -54.75 397.4375 C-50.7713977 395.80988997 -47.94690056 393.03827598 -44.875 390.125 C-41.83432182 387.26707358 -38.79781018 384.44424399 -35.5703125 381.796875 C-19.25143523 368.14507185 -4.46401874 343.21797831 -1.95625305 321.93981934 C-1.51582078 316.59637268 -1.54891227 311.2335172 -1.50390625 305.875 C-1.47938677 303.88030743 -1.45485604 301.88561494 -1.42970943 299.89093018 C-1.3695441 295.01639811 -1.31868035 290.1417793 -1.27319336 285.26708984 C-0.9167597 248.10422727 -0.9167597 248.10422727 3.875 231.9375 C4.2608728 230.61613037 4.2608728 230.61613037 4.65454102 229.26806641 C7.24454693 220.80824809 10.8465329 213.09312931 15.25 205.4375 C16.11625 203.93123047 16.11625 203.93123047 17 202.39453125 C25.33829585 188.70968922 36.651046 176.92110718 48 165.6875 C66.79913731 147.02131274 84.33257166 124.39187319 84.5625 96.75 C84.60205945 74.02969071 76.20592649 53.41645874 60.62890625 36.78515625 C42.45821781 18.85316323 20.94037311 12.98940514 -3.91674805 13.07617188 C-12.9055229 13.20805044 -20.4512089 13.76187483 -28.75 17.4375 Z " fill="#EDDFC9" transform="translate(533.75,294.5625)"/>
<path d="M0 0 C0.79083984 0.16628906 1.58167969 0.33257812 2.39648438 0.50390625 C45.91935959 10.06548176 85.29924887 37.13910307 110.09765625 74.12890625 C120.25816127 90.08422723 127.89841327 107.29477913 133.1875 125.4375 C133.42549316 126.24662842 133.66348633 127.05575684 133.90869141 127.8894043 C138.20833254 143.20329783 139.81670786 158.64535658 141.15405273 174.43115234 C144.33723253 211.48662998 159.08157649 239.81123948 180.52124023 269.8359375 C184.45475334 275.5923615 186.02550346 281.04289129 185 288 C183.47937516 293.4760597 180.9588704 298.18073677 176.453125 301.7265625 C171.91008441 304.08489249 166.91155216 304.9985626 161.9375 306.04296875 C157.98857561 306.91216135 152.91749777 308.08250223 150 311 C149.68182717 314.97716039 149.75835962 317.49658255 151.5 321.125 C154.25085439 326.95575836 154.10982165 334.39165678 152.23828125 340.4765625 C150.73646633 343.64640111 149.21298855 345.7927679 146.6875 348.25 C145.8521875 349.11625 145.8521875 349.11625 145 350 C145.2844925 351.34460139 145.62942911 352.67653254 146 354 C147.2014957 365.86047898 143.34076615 372.3049504 136.234375 381.37109375 C133.70109747 384.71405808 133.93084704 387.00854885 134.04296875 391.15234375 C134.06423828 392.40466797 134.08550781 393.65699219 134.10742188 394.94726562 C134.16010735 397.57254424 134.22487891 400.19761287 134.30273438 402.82226562 C134.4641629 414.5467597 132.19725652 424.30426167 124 433 C115.68330075 441.36911542 104.81347066 445.14878626 93.18847656 445.38696289 C87.37417196 445.35689736 81.60418925 445.00362515 75.8125 444.5 C54.78161234 442.71410713 34.15196171 442.53763306 16.9375 456.48046875 C-4.28443199 474.90768852 -14.84375711 499.7741262 -23 526 C-23.99 525.67 -24.98 525.34 -26 525 C-27.0625 522.1875 -27.0625 522.1875 -28 519 C-28.50853516 518.06027344 -28.50853516 518.06027344 -29.02734375 517.1015625 C-31.46541691 511.83375785 -30.59375019 506.02669849 -29.0078125 500.61328125 C-23.16363211 485.34247091 -15.47709076 470.58785996 -5 458 C-4.37867188 457.21625 -3.75734375 456.4325 -3.1171875 455.625 C8.64210133 441.45481094 25.93219754 431.26401008 44.4375 429.375 C53.84128759 428.56357919 63.47934533 428.57626991 72.875 429.5 C86.17594505 430.74926003 99.16084701 431.50296473 111.3125 425.3125 C115.69199812 421.54409464 118.99089619 416.76782495 120 411 C120.09248018 409.02255614 120.12999268 407.04209892 120.125 405.0625 C120.12886719 403.53302734 120.12886719 403.53302734 120.1328125 401.97265625 C120.00858041 399.19204982 119.58586998 396.71350308 119 394 C117.71157944 384.58963716 121.13285492 377.21842337 126.69921875 369.70703125 C127.23160156 369.04058594 127.76398438 368.37414062 128.3125 367.6875 C131.07899817 364.11901167 132.41727631 361.67349467 132 357 C129.95880173 354.0171149 127.60301389 351.49915298 125 349 C127.15790935 346.71396479 129.41363238 344.96562774 132 343.1875 C135.58692799 340.49895545 137.6758331 338.41388966 139 334 C138.8563303 329.47440432 138.36573436 326.77535685 136.4375 322.6875 C134.18004356 316.89663347 133.68417003 311.34375615 135.99609375 305.46875 C139.99876778 298.66533806 145.46725501 295.52140198 152.96923828 293.45849609 C155.82171759 292.73408806 158.67378543 292.03540649 161.55419922 291.43041992 C164.26409485 290.8379397 166.61205946 290.24428731 168.97265625 288.7578125 C170.59254009 285.98614814 170.41919209 284.16680567 170 281 C168.79975742 278.52123816 167.60274461 276.35985966 166.125 274.0625 C165.72007324 273.40991211 165.31514648 272.75732422 164.89794922 272.08496094 C162.07398569 267.57225205 159.10715728 263.1589499 156.125 258.75 C147.21972262 245.55304376 139.19110901 232.10140802 134 217 C133.62359375 215.96875 133.2471875 214.9375 132.859375 213.875 C128.24959784 199.83926058 127.69202714 184.63019503 126.359375 170.0078125 C122.44801444 128.33409642 110.14732477 92.41728733 82 61 C81.30648438 60.22140625 80.61296875 59.4428125 79.8984375 58.640625 C69.04926348 47.16312044 55.72421896 38.17458788 41.77246094 30.92724609 C40.19059382 30.09970735 38.62884051 29.2339789 37.0703125 28.36328125 C15.42412033 16.68169596 -10.31214146 11.77137236 -34.6875 11.75 C-35.72236542 11.74898788 -35.72236542 11.74898788 -36.77813721 11.74795532 C-54.5946561 11.77556543 -71.14236415 14.16944601 -88 20 C-88.63744141 20.22026855 -89.27488281 20.44053711 -89.93164062 20.66748047 C-109.50215428 27.60584229 -125.94058367 38.81091771 -141 53 C-141.60199219 53.54914063 -142.20398438 54.09828125 -142.82421875 54.6640625 C-160.63197607 71.51709157 -169.77901226 94.06478252 -177 117 C-178.33895632 115.33784732 -179.67130142 113.67036393 -181 112 C-181.86625 111.00419922 -181.86625 111.00419922 -182.75 109.98828125 C-185.26825501 105.98268187 -183.85824111 101.42980351 -183 97 C-177.73350981 76.58952514 -166.38626364 60.19608642 -152 45 C-151.18015625 44.11570312 -150.3603125 43.23140625 -149.515625 42.3203125 C-111.57638218 2.69737547 -52.80874 -11.11302399 0 0 Z " fill="#EEE0C9" transform="translate(558,250)"/>
<path d="M0 0 C1.31822754 0.00829834 2.63645508 0.01659668 3.99462891 0.02514648 C29.11019602 0.45955953 51.96845002 9.93190087 69.76367188 27.87792969 C81.8399196 40.5492619 90.11830862 55.37893263 94.25 72.4375 C94.42515137 73.15115723 94.60030273 73.86481445 94.78076172 74.60009766 C100.14462072 98.42405302 95.81131524 121.65806343 83.15039062 142.22363281 C76.77791867 152.16581693 69.41271104 161.56974482 60.9140625 169.77734375 C59.17712187 171.51020705 57.59154672 173.32063833 56 175.1875 C53.16840351 178.49313608 50.14130135 181.48809884 47 184.5 C25.22094209 205.92300723 10.79260932 237.88881722 10.18823242 268.57348633 C10.18747982 272.07034094 10.21182704 275.56585663 10.25 279.0625 C10.27567397 281.42963995 10.29664804 283.7968364 10.3125 286.1640625 C10.32410156 287.20127441 10.33570313 288.23848633 10.34765625 289.30712891 C10.24041574 292.74472356 9.73619779 296.03411546 9.25 299.4375 C9.14179535 301.87361204 9.07356035 304.31173012 9.0390625 306.75 C9.01348665 308.15813634 8.98708726 309.56625791 8.95996094 310.97436523 C8.94670776 311.70291718 8.93345459 312.43146912 8.9197998 313.18209839 C8.12022644 353.43582406 -0.10152512 386.96411246 -24.75 419.4375 C-32.87509157 415.62407259 -40.21703555 409.92752858 -47.4375 404.625 C-48.43136719 403.89667969 -49.42523438 403.16835938 -50.44921875 402.41796875 C-52.75 400.4375 -52.75 400.4375 -53.75 397.4375 C-53.06224487 396.79518433 -53.06224487 396.79518433 -52.3605957 396.13989258 C-50.26039009 394.17749225 -48.16143685 392.21375728 -46.0625 390.25 C-45.34126953 389.57646484 -44.62003906 388.90292969 -43.87695312 388.20898438 C-40.10411764 384.67733472 -36.39165916 381.10521754 -32.75 377.4375 C-32.18796875 376.921875 -31.6259375 376.40625 -31.046875 375.875 C-15.82035696 361.72510445 -3.41738691 337.24990876 -2.63908386 316.47717285 C-2.57183928 312.94305813 -2.53359349 309.40962872 -2.50390625 305.875 C-2.47938677 303.88030743 -2.45485604 301.88561494 -2.42970943 299.89093018 C-2.3695441 295.01639811 -2.31868035 290.1417793 -2.27319336 285.26708984 C-1.9167597 248.10422727 -1.9167597 248.10422727 2.875 231.9375 C3.2608728 230.61613037 3.2608728 230.61613037 3.65454102 229.26806641 C6.24454693 220.80824809 9.8465329 213.09312931 14.25 205.4375 C15.11625 203.93123047 15.11625 203.93123047 16 202.39453125 C24.33829585 188.70968922 35.651046 176.92110718 47 165.6875 C65.79913731 147.02131274 83.33257166 124.39187319 83.5625 96.75 C83.60186618 74.14069202 75.27255093 53.4181476 59.7578125 36.8515625 C40.37816776 18.19639046 18.30599542 13.88325729 -7.63671875 14.16796875 C-15.34841484 14.37067163 -21.63831658 15.28765778 -28.75 18.4375 C-29.69673584 18.83219482 -29.69673584 18.83219482 -30.66259766 19.23486328 C-51.24075966 27.91927032 -64.08575267 43.74450351 -72.8515625 63.98046875 C-82.195493 89.88863967 -74.17928557 116.96973439 -63.01708984 140.80957031 C-61.12335921 144.73714575 -59.13739469 148.6162195 -57.15576172 152.5 C-52.15513008 162.30816504 -47.53947901 171.75551401 -44.75 182.4375 C-44.50894531 183.3346875 -44.26789063 184.231875 -44.01953125 185.15625 C-43.39868148 187.92298992 -43.0485775 190.61720172 -42.75 193.4375 C-42.65154785 194.09621094 -42.5530957 194.75492188 -42.45166016 195.43359375 C-40.66826877 208.15833227 -40.66826877 208.15833227 -44.1328125 213.61572266 C-47.86943154 218.10113167 -52.18734672 221.81763988 -56.75 225.4375 C-57.83804749 222.17335752 -57.60888298 221.5802972 -56.75 218.4375 C-55.01359877 194.34624841 -61.11829193 174.68374642 -71.69308472 153.32211304 C-86.04850229 124.29114038 -96.20059512 93.17466753 -85.81933594 61.01782227 C-78.1057187 38.54133695 -62.37054406 19.05940666 -40.86816406 8.51464844 C-27.6217988 2.44881158 -14.56963798 -0.11877931 0 0 Z " fill="#7C7E91" transform="translate(533.75,294.5625)"/>
<path d="M0 0 C0.33 0 0.66 0 1 0 C0.51747072 29.34655322 -12.55519712 55.01716446 -30 78 C-33.56589068 76.34563245 -36.73938954 74.25118477 -40 72.0625 C-41.03125 71.37285156 -42.0625 70.68320312 -43.125 69.97265625 C-45.4646328 68.36733755 -47.74900897 66.72612053 -50 65 C-48.8387441 61.51623231 -47.9623468 60.98490611 -45.0625 58.875 C-39.75677444 54.87258262 -34.85963075 50.52951366 -30 46 C-29.23558594 45.30132813 -28.47117187 44.60265625 -27.68359375 43.8828125 C-15.01440685 31.85259328 -6.71607589 15.95068025 0 0 Z " fill="#171D23" transform="translate(539,636)"/>
<path d="M0 0 C3.85190568 3.19626216 5.83162034 5.24885153 6.3125 10.25 C5.94328153 14.68062166 4.83161153 16.61779734 2 20 C-1.41550511 22.59107284 -4.83325464 22.50288306 -9 22 C-11.97239241 20.21523759 -14.42604027 18.14791945 -16 15 C-16.52999351 11.21433208 -16.83021253 7.55143964 -14.98828125 4.109375 C-10.72993354 -1.15921136 -6.35218225 -1.84498081 0 0 Z " fill="#181E23" transform="translate(644,479)"/>
<path d="M0 0 C3.85190568 3.19626216 5.83162034 5.24885153 6.3125 10.25 C5.94328153 14.68062166 4.83161153 16.61779734 2 20 C-1.41550511 22.59107284 -4.83325464 22.50288306 -9 22 C-11.97239241 20.21523759 -14.42604027 18.14791945 -16 15 C-16.54399285 10.460781 -16.62289461 7.0455731 -14.25 3.0625 C-9.72337966 -1.08690198 -6.02496845 -1.88877979 0 0 Z " fill="#181E24" transform="translate(550,358)"/>
<path d="M0 0 C4.46757795 1.49475973 7.86865308 3.97823381 11.5625 6.8125 C17.836779 11.51320935 24.26035528 15.94538301 30.8125 20.25 C32.12939819 21.12748901 32.12939819 21.12748901 33.47290039 22.02270508 C34.70254517 22.82357544 34.70254517 22.82357544 35.95703125 23.640625 C36.68897705 24.12047852 37.42092285 24.60033203 38.17504883 25.09472656 C38.77728271 25.3934668 39.3795166 25.69220703 40 26 C40.66 25.67 41.32 25.34 42 25 C42.10957031 25.64066406 42.21914063 26.28132812 42.33203125 26.94140625 C43.32460328 32.3561691 44.62458653 37.03322639 47 42 C44 43 44 43 41.92895508 42.26586914 C39.21480895 40.87950673 36.50530079 39.49009706 33.8125 38.0625 C32.80106934 37.53052002 31.78963867 36.99854004 30.74755859 36.45043945 C15.66661718 28.33216379 1.37503454 18.69050656 -12 8 C-8.65309145 8 -8.0783247 8.40336155 -5.48046875 10.30859375 C-4.79460693 10.80431885 -4.10874512 11.30004395 -3.40209961 11.81079102 C-2.67128174 12.34760498 -1.94046387 12.88441895 -1.1875 13.4375 C0.34745636 14.54115444 1.88393767 15.64269083 3.421875 16.7421875 C4.19080078 17.29229492 4.95972656 17.84240234 5.75195312 18.40917969 C13.48666885 23.88261666 20.97650827 28.9354179 30 32 C31.01689042 32.98281935 32.0169566 33.98332617 33 35 C36.78745238 37.24592041 36.78745238 37.24592041 41 38 C40.7215625 36.081875 40.7215625 36.081875 40.4375 34.125 C39.875 30.25 39.875 30.25 41 28 C40.29875 27.731875 39.5975 27.46375 38.875 27.1875 C35.8350176 25.9318551 32.9272226 24.49764877 30 23 C30 22.34 30 21.68 30 21 C29.27312988 20.73646729 28.54625977 20.47293457 27.79736328 20.20141602 C24.96575855 18.98529393 22.74045768 17.57295957 20.2421875 15.77734375 C19.36949219 15.15666016 18.49679687 14.53597656 17.59765625 13.89648438 C16.69917969 13.25001953 15.80070312 12.60355469 14.875 11.9375 C13.08313524 10.65158852 11.28896436 9.36888268 9.4921875 8.08984375 C8.30665283 7.23700806 8.30665283 7.23700806 7.09716797 6.36694336 C4.95427662 4.844143 4.95427662 4.844143 2 4 C0.8125 1.9375 0.8125 1.9375 0 0 Z " fill="#A2C3BB" transform="translate(486,732)"/>
<path d="M0 0 C4.70797129 0.58849641 8.44006514 2.62297137 12.5 4.9375 C13.20487549 5.33791504 13.90975098 5.73833008 14.63598633 6.15087891 C21.58047762 10.19054126 27.81851346 14.88942481 34 20 C34.58507324 20.47824219 35.17014648 20.95648438 35.77294922 21.44921875 C37.56394543 22.91628579 39.34655246 24.39275279 41.125 25.875 C41.66987061 26.3272998 42.21474121 26.77959961 42.77612305 27.24560547 C45.57428157 29.61773606 47.94561619 31.9538447 50 35 C44.46242746 32.53885665 40.17754955 28.30309592 35.63671875 24.3828125 C34.37553851 23.31728075 33.0708321 22.30312408 31.75 21.3125 C30 20 30 20 28.4375 18.375 C26.93365899 16.74053524 26.93365899 16.74053524 24 16 C23.484375 15.4225 22.96875 14.845 22.4375 14.25 C18.79887262 10.89126704 14.46115536 9.07733188 10 7 C10 6.34 10 5.68 10 5 C7.69 4.34 5.38 3.68 3 3 C3.0825 3.78375 3.165 4.5675 3.25 5.375 C2.90508489 10.37626906 1.01353919 14.4515588 -1 19 C-1.33 19 -1.66 19 -2 19 C-2.24794402 12.4294834 -1.32388229 6.43028541 0 0 Z " fill="#A7C9C0" transform="translate(291,318)"/>
<path d="M0 0 C7.11379655 6.85032261 13.71741347 15.0455009 18 24 C17.67 24.66 17.34 25.32 17 26 C16.52949219 25.21753906 16.05898438 24.43507813 15.57421875 23.62890625 C14.95160156 22.61699219 14.32898438 21.60507812 13.6875 20.5625 C12.76517578 19.04849609 12.76517578 19.04849609 11.82421875 17.50390625 C10.17948035 14.73729397 10.17948035 14.73729397 7 14 C7 14.66 7 15.32 7 16 C6.34 16 5.68 16 5 16 C4.71125 15.0925 4.4225 14.185 4.125 13.25 C3.14545173 10.14951615 3.14545173 10.14951615 1.9375 8 C0.71479283 5.39155804 0.3872708 2.83998588 0 0 Z " fill="#131B1E" transform="translate(307,355)"/>
<path d="M0 0 C0.99 0.33 1.98 0.66 3 1 C3 2.65 3 4.3 3 6 C3.66 6 4.32 6 5 6 C6.75747614 10.50353262 7.19294408 14.17639811 7 19 C7.66 19 8.32 19 9 19 C9 21.31 9 23.62 9 26 C6.69222209 23.69222209 6.2462912 22.15345852 5.2734375 19.0625 C4.9640625 18.08539063 4.6546875 17.10828125 4.3359375 16.1015625 C4.01882813 15.07804687 3.70171875 14.05453125 3.375 13 C2.88773437 11.46472656 2.88773437 11.46472656 2.390625 9.8984375 C0 2.28459821 0 2.28459821 0 0 Z " fill="#98BCB3" transform="translate(336,402)"/>
<path d="M0 0 C0.66 0 1.32 0 2 0 C3.37482707 1.63260714 4.70647667 3.30225062 6 5 C6.66 5.66 7.32 6.32 8 7 C8.495 7.515625 8.99 8.03125 9.5 8.5625 C10.95935935 10.10300302 10.95935935 10.10300302 13 11 C13.12375 11.70125 13.2475 12.4025 13.375 13.125 C13.9688989 15.85693493 14.69610347 17.34352248 16.125 19.6875 C16.74375 20.780625 17.3625 21.87375 18 23 C17.67 23.66 17.34 24.32 17 25 C16.35933594 24.01 15.71867187 23.02 15.05859375 22 C10.77963133 15.45058465 6.61352289 9.08969094 1.1796875 3.41796875 C0 2 0 2 0 0 Z " fill="#A1C4BB" transform="translate(308,355)"/>
<path d="M0 0 C4.35692565 1.66838373 7.18198494 4.92128213 10.375 8.1875 C11.24064575 9.06281372 11.24064575 9.06281372 12.1237793 9.95581055 C15.92970896 13.83073312 19.56967788 17.78560425 23 22 C22.67 22.66 22.34 23.32 22 24 C21.5467334 23.51120361 21.0934668 23.02240723 20.62646484 22.51879883 C18.54635532 20.27988411 16.46073605 18.04617355 14.375 15.8125 C13.66214844 15.04357422 12.94929688 14.27464844 12.21484375 13.48242188 C9.09877719 10.15194706 6.0415613 6.92768487 2.4765625 4.07421875 C1.65929687 3.38972656 0.84203125 2.70523437 0 2 C0 1.34 0 0.68 0 0 Z " fill="#A5C6BD" transform="translate(343,355)"/>
<path d="M0 0 C0.66 0.33 1.32 0.66 2 1 C-5 8 -12 15 -19 22 C-19.66 21.67 -20.32 21.34 -21 21 C-14.07 14.07 -7.14 7.14 0 0 Z " fill="#F6EEDD" transform="translate(499,497)"/>
<path d="M0 0 C0.99 0 1.98 0 3 0 C3.47266289 7.32627475 2.09866202 12.37384327 -1 19 C-1.33 19 -1.66 19 -2 19 C-2.24794402 12.4294834 -1.32388229 6.43028541 0 0 Z " fill="#9CBEB5" transform="translate(291,318)"/>
<path d="M0 0 C2 2 2 2 2.265625 4.75 C2.25789062 6.35875 2.25789062 6.35875 2.25 8 C2.25515625 9.0725 2.2603125 10.145 2.265625 11.25 C2 14 2 14 0 16 C-1 15 -1 15 -1.1328125 12.12890625 C-1.13023437 10.95199219 -1.12765625 9.77507813 -1.125 8.5625 C-1.12757813 7.38816406 -1.13015625 6.21382812 -1.1328125 5.00390625 C-1 2 -1 2 0 0 Z " fill="#26282A" transform="translate(677,647)"/>
<path d="M0 0 C0 3 0 3 -1.28515625 4.54296875 C-1.87167969 5.08566406 -2.45820312 5.62835938 -3.0625 6.1875 C-6.41779671 9.38626157 -9.43967622 12.75419438 -12.421875 16.30078125 C-14 18 -14 18 -17 20 C-15.30265036 15.70918446 -12.18073229 12.73370512 -9.0625 9.4375 C-8.52431641 8.86064453 -7.98613281 8.28378906 -7.43164062 7.68945312 C-4.99425493 5.08376459 -2.5319713 2.51420308 0 0 Z " fill="#8B8E9F" transform="translate(578,463)"/>
<path d="M0 0 C0.33 0 0.66 0 1 0 C0.87431641 0.93972656 0.87431641 0.93972656 0.74609375 1.8984375 C0.64425781 2.71570313 0.54242188 3.53296875 0.4375 4.375 C0.33308594 5.18710937 0.22867187 5.99921875 0.12109375 6.8359375 C-0.18237328 9.04899186 -0.18237328 9.04899186 1 11 C0.22265625 13.3828125 0.22265625 13.3828125 -0.9375 16.125 C-1.31777344 17.03507812 -1.69804687 17.94515625 -2.08984375 18.8828125 C-2.39019531 19.58148438 -2.69054687 20.28015625 -3 21 C-3.33 21 -3.66 21 -4 21 C-3.59248958 13.60860415 -2.41492814 7.00177279 0 0 Z " fill="#98BAB3" transform="translate(280,376)"/>
<path d="M0 0 C1.97614897 2.78985737 2.10310462 4.83334677 1.75 8.125 C1 12 1 12 -1 14 C-1.66 14.99 -2.32 15.98 -3 17 C-2.22095672 5.47835991 -2.22095672 5.47835991 0 0 Z " fill="#96B9B1" transform="translate(284,358)"/>
<path d="M0 0 C0.66 0.33 1.32 0.66 2 1 C-2.48713568 5.5896337 -6.98568224 9.98854579 -12 14 C-12.66 13.67 -13.32 13.34 -14 13 C-4.58997722 3.40546697 -4.58997722 3.40546697 0 0 Z " fill="#85899B" transform="translate(501,673)"/>
<path d="M0 0 C0 4.16207365 -0.19112905 6.11759533 -3.0625 9.25 C-3.701875 9.8275 -4.34125 10.405 -5 11 C-5.99 10.67 -6.98 10.34 -8 10 C-6.85500893 8.52018126 -5.708983 7.04116318 -4.5625 5.5625 C-3.60537109 4.32693359 -3.60537109 4.32693359 -2.62890625 3.06640625 C-1 1 -1 1 0 0 Z " fill="#13171A" transform="translate(469,546)"/>
<path d="M0 0 C0 3.78374009 -1.10336895 5.74863249 -3 9 C-5.1875 10.875 -5.1875 10.875 -7 12 C-7.66 11.34 -8.32 10.68 -9 10 C-6.03 6.7 -3.06 3.4 0 0 Z " fill="#F0E6D4" transform="translate(463,534)"/>
<path d="M0 0 C3.35997759 5.03996638 4.29282455 9.99709677 4 16 C3.34 16.33 2.68 16.66 2 17 C1.66291092 14.91727106 1.33046884 12.83378963 1 10.75 C0.814375 9.58984375 0.62875 8.4296875 0.4375 7.234375 C0 4 0 4 0 0 Z " fill="#96BAB2" transform="translate(317,396)"/>
<path d="M0 0 C0.66 0.33 1.32 0.66 2 1 C1.85691406 1.56203125 1.71382813 2.1240625 1.56640625 2.703125 C0.98879098 5.04545453 0.45716693 7.39417659 -0.0625 9.75 C-0.23910156 10.54921875 -0.41570312 11.3484375 -0.59765625 12.171875 C-0.73042969 12.77515625 -0.86320312 13.3784375 -1 14 C-1.66 13.67 -2.32 13.34 -3 13 C-3.28358209 5.62686567 -3.28358209 5.62686567 -1 2 C-0.67 1.34 -0.34 0.68 0 0 Z " fill="#88ACA5" transform="translate(277,393)"/>
<path d="M0 0 C2.60045875 2.3024119 3.84739183 4.49896677 5.1875 7.6875 C5.53167969 8.49574219 5.87585938 9.30398438 6.23046875 10.13671875 C6.48441406 10.75160156 6.73835937 11.36648438 7 12 C4 12 4 12 1 10 C0.875 7.125 0.875 7.125 1 4 C0.56058477 1.73433657 0.56058477 1.73433657 0 0 Z " fill="#95B4A7" transform="translate(526,762)"/>
<path d="M0 0 C0.99 0.33 1.98 0.66 3 1 C-0.96 4.96 -4.92 8.92 -9 13 C-9.66 12.67 -10.32 12.34 -11 12 C-10.37351562 11.38511719 -9.74703125 10.77023437 -9.1015625 10.13671875 C-8.28429687 9.32847656 -7.46703125 8.52023437 -6.625 7.6875 C-5.40683594 6.48673828 -5.40683594 6.48673828 -4.1640625 5.26171875 C-1.87395158 2.99990063 -1.87395158 2.99990063 0 0 Z " fill="#0E1318" transform="translate(593,465)"/>
<path d="M0 0 C2.64 0.33 5.28 0.66 8 1 C6 3 6 3 2.375 3.125 C1.26125 3.08375 0.1475 3.0425 -1 3 C-0.67 2.01 -0.34 1.02 0 0 Z M-3 3 C-2.34 3.33 -1.68 3.66 -1 4 C-2.65 5.32 -4.3 6.64 -6 8 C-4.125 4.125 -4.125 4.125 -3 3 Z " fill="#23282C" transform="translate(542,357)"/>
<path d="M0 0 C0.33 0 0.66 0 1 0 C1.9765625 6.0546875 1.9765625 6.0546875 2 8 C1.34 8.66 0.68 9.32 0 10 C-0.46006346 12.20250992 -0.46006346 12.20250992 -0.625 14.625 C-0.69976562 15.44226563 -0.77453125 16.25953125 -0.8515625 17.1015625 C-0.92503906 18.04128906 -0.92503906 18.04128906 -1 19 C-1.33 19 -1.66 19 -2 19 C-2.24991456 12.34949576 -1.73955334 6.43013467 0 0 Z " fill="#21272F" transform="translate(428,592)"/>
<path d="M0 0 C3.53790403 3.69172595 3.59115883 7.09390595 4 12 C3.67 11.01 3.34 10.02 3 9 C2.01 9 1.02 9 0 9 C-1.10844919 5.67465243 -0.84454356 3.37817425 0 0 Z " fill="#99BDB4" transform="translate(305,354)"/>
<path d="M0 0 C0.99 0.99 1.98 1.98 3 3 C1.68 3.33 0.36 3.66 -1 4 C-1.66 7.3 -2.32 10.6 -3 14 C-3.33 14 -3.66 14 -4 14 C-3.66009167 8.62007164 -3.31442207 4.46726453 0 0 Z " fill="#F0E9D7" transform="translate(548,575)"/>
<path d="M0 0 C0.99 0 1.98 0 3 0 C3.66 3.3 4.32 6.6 5 10 C4.01 9.67 3.02 9.34 2 9 C1.26953125 6.93359375 1.26953125 6.93359375 0.8125 4.4375 C0.65394531 3.61121094 0.49539063 2.78492188 0.33203125 1.93359375 C0.16767578 0.97646484 0.16767578 0.97646484 0 0 Z " fill="#729393" transform="translate(335,556)"/>
<path d="M0 0 C0.33 0 0.66 0 1 0 C1.33 1.98 1.66 3.96 2 6 C2.33 6 2.66 6 3 6 C3 7.98 3 9.96 3 12 C2.01 12 1.02 12 0 12 C0 8.04 0 4.08 0 0 Z " fill="#6A8D8D" transform="translate(330,516)"/>
<path d="M0 0 C1.32 0.33 2.64 0.66 4 1 C2.35 2.65 0.7 4.3 -1 6 C-1.99 5.67 -2.98 5.34 -4 5 C-2.68 3.35 -1.36 1.7 0 0 Z " fill="#EFE3D1" transform="translate(555,565)"/>
<path d="M0 0 C2.33333333 2.33333333 4.66666667 4.66666667 7 7 C6.67 7.99 6.34 8.98 6 10 C5.34 9.01 4.68 8.02 4 7 C3.01 7.495 3.01 7.495 2 8 C0.74335022 5.09399739 0 3.20395416 0 0 Z " fill="#0C1314" transform="translate(307,355)"/>
<path d="M0 0 C1.27875 -0.061875 2.5575 -0.12375 3.875 -0.1875 C4.95394531 -0.23970703 4.95394531 -0.23970703 6.0546875 -0.29296875 C6.69664062 -0.19628906 7.33859375 -0.09960938 8 0 C8.66 0.99 9.32 1.98 10 3 C7.03 3 4.06 3 1 3 C0.67 2.01 0.34 1.02 0 0 Z " fill="#262A2B" transform="translate(619,693)"/>
<path d="M0 0 C3.3 0 6.6 0 10 0 C9.01 0.495 9.01 0.495 8 1 C8 1.66 8 2.32 8 3 C5.125 3.1875 5.125 3.1875 2 3 C1.34 2.01 0.68 1.02 0 0 Z " fill="#E3D5C0" transform="translate(625,691)"/>
<path d="M0 0 C0.33 0 0.66 0 1 0 C0.67 3.96 0.34 7.92 0 12 C-0.33 12 -0.66 12 -1 12 C-2.42857143 3.42857143 -2.42857143 3.42857143 0 0 Z " fill="#0E0E0F" transform="translate(539,636)"/>
<path d="M0 0 C2 2 2 2 2.1953125 3.9453125 C2.13020833 5.96354167 2.06510417 7.98177083 2 10 C1.34 10 0.68 10 0 10 C-1.231394 6.30581799 -0.64432764 3.7943739 0 0 Z " fill="#6B8A8B" transform="translate(390,611)"/>
<path d="M0 0 C0.66 1.32 1.32 2.64 2 4 C0.125 5.0625 0.125 5.0625 -2 6 C-2.66 5.67 -3.32 5.34 -4 5 C-2.68 3.35 -1.36 1.7 0 0 Z " fill="#F0E5D4" transform="translate(515,705)"/>
<path d="M0 0 C0.65234375 1.765625 0.65234375 1.765625 1 4 C0.00390625 5.921875 0.00390625 5.921875 -1.4375 7.75 C-2.14712891 8.67039062 -2.14712891 8.67039062 -2.87109375 9.609375 C-3.24363281 10.06828125 -3.61617187 10.5271875 -4 11 C-4.33 10.34 -4.66 9.68 -5 9 C-4.00390625 6.8359375 -4.00390625 6.8359375 -2.5625 4.375 C-2.08941406 3.55773437 -1.61632812 2.74046875 -1.12890625 1.8984375 C-0.75636719 1.27195312 -0.38382813 0.64546875 0 0 Z " fill="#898D9F" transform="translate(525,638)"/>
<path d="M0 0 C-2 2 -2 2 -5 2.25 C-8 2 -8 2 -10 0 C-6.30458414 -0.95024979 -3.69541586 -0.95024979 0 0 Z " fill="#24282A" transform="translate(731,555)"/>
<path d="M0 0 C0.99 0 1.98 0 3 0 C3.125 3.375 3.125 3.375 3 7 C2.34 7.66 1.68 8.32 1 9 C0.67 6.03 0.34 3.06 0 0 Z " fill="#1E282D" transform="translate(348,466)"/>
<path d="M0 0 C2 3 2 3 1.625 5.6875 C1.41875 6.450625 1.2125 7.21375 1 8 C0.01 8.33 -0.98 8.66 -2 9 C-1.34 6.03 -0.68 3.06 0 0 Z " fill="#6A8D8E" transform="translate(402,559)"/>
</svg>
